<?xml version="1.0" encoding="utf-8"?>
<svg version="1.1" x="0px" y="0px" viewBox="0 211.834 100 125" enable-background="new 0 211.834 100 100" xmlns="http://www.w3.org/2000/svg">
  <style>
    path {
      fill: #c70c5f;
    }
    @media (prefers-color-scheme: dark) {
      path {
        fill: #fff;
      }
    }
  </style>
  <path fill="#fff" d="M 98.888 241.317 L 91.117 234.245 C 90.954 234.097 90.764 234.017 90.57 234.017 L 79.683 234.017 L 97.267 218.535 C 97.619 218.225 97.806 217.639 97.735 217.054 C 97.665 216.469 97.35 216.004 96.945 215.881 L 86.897 212.819 C 86.688 212.762 86.479 212.785 86.283 212.904 L 54.939 232.006 L 56.876 229.936 C 57.263 229.521 57.391 228.771 57.183 228.146 L 55.304 222.596 C 55.134 222.094 54.78 221.775 54.388 221.775 L 50 221.775 L 45.611 221.775 C 45.221 221.775 44.866 222.094 44.697 222.596 L 42.819 228.146 C 42.608 228.771 42.735 229.521 43.124 229.936 L 45.06 232.006 L 13.716 212.904 C 13.523 212.787 13.309 212.759 13.104 212.819 L 3.055 215.881 C 2.648 216.007 2.335 216.469 2.264 217.054 C 2.195 217.636 2.379 218.224 2.732 218.535 L 20.318 234.017 L 9.43 234.017 C 9.237 234.017 9.048 234.097 8.884 234.245 L 1.113 241.317 C 0.766 241.631 0.587 242.214 0.658 242.795 C 0.729 243.374 1.04 243.832 1.441 243.958 L 36.281 254.86 C 36.352 254.882 36.426 254.896 36.499 254.896 C 36.759 254.896 37.013 254.752 37.205 254.486 L 41.326 248.791 C 41.906 251.686 43.163 257.051 45.61 267.313 L 48.986 334.476 C 48.99 334.544 49.011 334.603 49.022 334.67 C 49.036 334.754 49.047 334.84 49.07 334.918 C 49.096 335.012 49.133 335.092 49.172 335.173 C 49.205 335.241 49.234 335.309 49.275 335.37 C 49.325 335.443 49.38 335.497 49.441 335.556 C 49.487 335.599 49.53 335.648 49.582 335.682 C 49.65 335.726 49.724 335.745 49.8 335.77 C 49.845 335.781 49.882 335.815 49.929 335.818 C 49.953 335.821 49.977 335.822 49.998 335.822 L 49.998 335.822 C 49.998 335.822 49.998 335.822 50 335.822 C 50.002 335.822 50 335.822 50.002 335.822 L 50.002 335.822 C 50.025 335.822 50.049 335.821 50.072 335.818 C 50.118 335.815 50.156 335.78 50.2 335.77 C 50.276 335.745 50.349 335.726 50.419 335.682 C 50.472 335.647 50.514 335.599 50.559 335.556 C 50.621 335.5 50.676 335.443 50.723 335.37 C 50.765 335.313 50.794 335.242 50.827 335.173 C 50.865 335.092 50.903 335.012 50.929 334.918 C 50.953 334.84 50.963 334.754 50.976 334.67 C 50.985 334.603 51.008 334.545 51.012 334.476 L 54.388 267.313 C 56.833 257.054 58.092 251.688 58.674 248.792 L 62.793 254.486 C 62.984 254.752 63.238 254.896 63.5 254.896 C 63.573 254.896 63.645 254.882 63.716 254.86 L 98.556 243.958 C 98.957 243.831 99.266 243.371 99.338 242.795 C 99.414 242.214 99.234 241.631 98.888 241.317 Z M 75.809 234.015 L 66.753 234.015 C 69.806 231.302 75.558 226.055 86.569 215.884 L 86.786 215.752 L 94.044 217.963 L 75.809 234.015 Z M 56.815 234.015 L 75.469 222.646 C 69.404 228.205 63.882 233.221 62.868 234.015 L 56.815 234.015 Z M 37.133 234.015 C 36.119 233.221 30.597 228.205 24.534 222.646 L 43.187 234.015 L 37.133 234.015 Z M 46.25 224.674 L 50 224.674 L 53.753 224.674 L 54.988 228.328 L 50 233.655 L 45.011 228.326 L 46.25 224.674 Z M 5.958 217.962 L 13.214 215.751 L 13.432 215.881 C 24.443 226.055 30.195 231.301 33.248 234.012 L 24.191 234.012 L 5.958 217.962 Z M 36.183 251.858 L 4.28 241.872 L 9.726 236.919 L 46.988 236.919 L 41.172 244.958 C 41.17 244.963 41.166 244.965 41.163 244.969 C 41.137 245.006 41.113 245.043 41.086 245.08 L 36.183 251.858 Z M 48.985 238.194 L 48.985 264.049 L 47.229 265.086 C 45.647 258.416 43.468 249.068 42.979 246.502 L 48.985 238.194 Z M 47.681 267.962 L 50 266.593 L 52.321 267.962 L 50 314.091 L 47.681 267.962 Z M 52.772 265.086 L 51.018 264.052 L 51.018 238.194 L 57.024 246.502 C 56.534 249.065 54.354 258.416 52.772 265.086 Z M 63.818 251.858 L 58.909 245.071 C 58.885 245.037 58.862 245.002 58.836 244.966 C 58.833 244.963 58.831 244.963 58.83 244.96 L 53.015 236.919 L 90.274 236.919 L 95.722 241.872 L 63.818 251.858 Z" style="" />
</svg>