<?xml version="1.0" encoding="utf-8"?>
<svg version="1.1" x="0px" y="0px" viewBox="0 0 100 125" style="enable-background:new 0 0 100 100;" xmlns="http://www.w3.org/2000/svg">
  <style type="text/css">
	.st0{fill-rule:evenodd;clip-rule:evenodd;}
</style>
  <g>
    <polygon class="st0" points="41.9,17.3 41.8,17.3 41.1,26.7 41.1,26.7 37.7,71.9 59.4,23.8  " style="fill: rgb(255, 255, 255);"/>
    <polygon class="st0" points="28.4,17.3 31.4,13.2 26.6,7.6  " style="fill: rgb(255, 255, 255);"/>
    <polygon class="st0" points="68.2,13.6 55.3,15.4 55.4,15.3 47.5,16.4 47.4,16.5 43.4,17.1 60.4,23.4 71.5,18.1     " style="fill: rgb(255, 255, 255);"/>
    <polygon class="st0" points="73.4,7.9 68.8,13.2 68.8,13.2 68.8,13.2 71.9,17.4 72.1,16.6 72.1,16.6 72.6,13.7    72.6,13.7 73.7,7.5 73.4,7.9  " style="fill: rgb(255, 255, 255);"/>
    <polygon class="st0" points="71.7,8.7 70.3,5.1 70.2,10.5  " style="fill: rgb(255, 255, 255);"/>
    <polygon class="st0" points="73,15.9 77.2,12.4 73.4,13.5  " style="fill: rgb(255, 255, 255);"/>
    <polygon class="st0" points="28.7,18.1 40.4,26.2 41.1,17 36.6,15.3 36.6,15.4 32,13.7  " style="fill: rgb(255, 255, 255);"/>
    <polygon class="st0" points="40.9,16.1 40.2,15.1 40.2,15.1 37.9,11.9 37.9,11.9 35.5,8.5 36.4,14.5  " style="fill: rgb(255, 255, 255);"/>
    <polygon class="st0" points="26.5,11.2 22.8,10.2 26.9,13.6  " style="fill: rgb(255, 255, 255);"/>
    <polygon class="st0" points="37.8,73.6 40.8,91.8 49.4,94.9 58.7,91.8 61.8,72.9 59.4,25.5  " style="fill: rgb(255, 255, 255);"/>
    <polygon class="st0" points="40.6,14.3 44.3,6 38.5,11.4  " style="fill: rgb(255, 255, 255);"/>
    <polygon class="st0" points="56.4,10.7 50.2,7.9 54.5,11.7  " style="fill: rgb(255, 255, 255);"/>
    <polygon class="st0" points="57.2,11.1 55.1,12.3 55.1,12.3 49.4,15.4 56.2,14.4 61.5,8.8 57.3,11.1  " style="fill: rgb(255, 255, 255);"/>
  </g>
</svg>