<svg xmlns:dc="http://purl.org/dc/elements/1.1/" xmlns:cc="http://creativecommons.org/ns#" xmlns:rdf="http://www.w3.org/1999/02/22-rdf-syntax-ns#" xmlns:svg="http://www.w3.org/2000/svg" xmlns="http://www.w3.org/2000/svg" xmlns:sodipodi="http://sodipodi.sourceforge.net/DTD/sodipodi-0.dtd" xmlns:inkscape="http://www.inkscape.org/namespaces/inkscape" version="1.1" x="0px" y="0px" viewBox="0 0 100 125">
    <g transform="translate(0,-952.36218)">
        <path d="m 38.999997,963.36214 0,28.98038 c -10.0212,-9.25848 -20.01562,-18.66928 -29.9999995,-28.01118 l 29.9999995,-0.9692 z m 2,1.0004 c 0.0444,0.2033 17.540491,18.2053 25.593751,27.97998 l -25.593751,0 0,-27.97998 z m -28.875,4.2517 13.34375,12.505 -18.4687495,-10.7855 5.1249995,-1.7195 z m 70.875001,2.7199 0,9.0036 0,12.00478 -13.5625,0 -6.218751,-7.31538 12.781251,-13.693 7,0 z m 2,1.8132 8.000004,7.1904 -8.000004,0 0,-7.1904 z m -2.96875,21.19598 -28.500001,29.41808 -12.03125,-29.41808 40.531251,0 z m -42.031251,1.6256 c 5.08075,12.43348 10.285471,24.81298 15,37.39008 l -15,8.0032 0,-45.39328 z" style="color:#000;enable-background:accumulate;" fill="#fff" stroke="none" marker="none" visibility="visible" display="inline" overflow="visible" />
    </g>
</svg>